<svg width="12" height="24" viewBox="0 0 12 24" fill="none" xmlns="http://www.w3.org/2000/svg">
<g id="check" clip-path="url(#clip0_42_777)">
<g id="Group">
<path id="Vector" d="M12.0001 8.75788C12.0016 8.85408 11.9831 8.94953 11.9457 9.03819C11.9084 9.12685 11.853 9.20677 11.7831 9.27288L6.17811 14.7579L5.12511 15.7879C5.0563 15.8566 4.97436 15.9108 4.88417 15.9473C4.79397 15.9837 4.69737 16.0016 4.60011 15.9999C4.50252 16.0019 4.40552 15.9842 4.31496 15.9477C4.22439 15.9113 4.14213 15.8569 4.07311 15.7879L3.02011 14.7579L0.217115 12.0149C0.147224 11.9488 0.0918423 11.8688 0.0544857 11.7802C0.0171291 11.6915 -0.00138626 11.5961 0.000115029 11.4999C0.000115029 11.2979 0.072115 11.1259 0.217115 10.9849L1.27012 9.95488C1.33896 9.88583 1.42103 9.83138 1.51141 9.79478C1.60179 9.75818 1.69862 9.74019 1.79612 9.74188C2.00311 9.74188 2.17811 9.81288 2.32311 9.95488L4.60011 12.1899L9.67812 7.21288C9.81812 7.07288 10.0081 6.99688 10.2051 7.00088C10.4111 7.00088 10.5871 7.07088 10.7311 7.21288L11.7841 8.24288C11.9261 8.37688 12.0041 8.56388 12.0011 8.75888L12.0001 8.75788Z" fill="#00B090"/>
</g>
</g>
<defs>
<clipPath id="clip0_42_777">
<rect width="12" height="24" fill="white"/>
</clipPath>
</defs>
</svg>
