<svg width="12" height="12" viewBox="0 0 12 12" fill="none" xmlns="http://www.w3.org/2000/svg">
<path id="Vector" d="M11.8069 10.4149L10.4119 11.8069C10.3511 11.8679 10.2789 11.9163 10.1993 11.9494C10.1198 11.9825 10.0345 11.9995 9.94836 11.9995C9.86223 11.9995 9.77694 11.9825 9.6974 11.9494C9.61786 11.9163 9.54563 11.8679 9.48486 11.8069L5.99986 8.32386L2.51686 11.8069C2.45584 11.868 2.38336 11.9165 2.30357 11.9496C2.22378 11.9827 2.13824 11.9997 2.05186 11.9997C1.96548 11.9997 1.87995 11.9827 1.80016 11.9496C1.72037 11.9165 1.64789 11.868 1.58686 11.8069L0.192862 10.4149C0.131725 10.3538 0.0832215 10.2814 0.0501279 10.2016C0.0170342 10.1218 0 10.0362 0 9.94986C0 9.86348 0.0170342 9.77795 0.0501279 9.69816C0.0832215 9.61837 0.131725 9.54589 0.192862 9.48486L3.67486 5.99986L0.192862 2.51686C0.0706013 2.39297 0.00205101 2.22592 0.00205101 2.05186C0.00205101 1.8778 0.0706013 1.71075 0.192862 1.58686L1.58686 0.192862C1.64789 0.131725 1.72037 0.0832216 1.80016 0.050128C1.87995 0.0170344 1.96548 0 2.05186 0C2.13824 0 2.22378 0.0170344 2.30357 0.050128C2.38336 0.0832216 2.45584 0.131725 2.51686 0.192862L5.99986 3.67786L9.48486 0.192862C9.54563 0.131817 9.61786 0.0833766 9.6974 0.0503235C9.77694 0.0172704 9.86223 0.000255585 9.94836 0.000255585C10.0345 0.000255585 10.1198 0.0172704 10.1993 0.0503235C10.2789 0.0833766 10.3511 0.131817 10.4119 0.192862L11.8069 1.58486C11.93 1.70857 11.9993 1.87591 11.9997 2.05045C12 2.225 11.9315 2.39262 11.8089 2.51686L8.32386 5.99986L11.8069 9.48486C11.868 9.54589 11.9165 9.61837 11.9496 9.69816C11.9827 9.77795 11.9997 9.86348 11.9997 9.94986C11.9997 10.0362 11.9827 10.1218 11.9496 10.2016C11.9165 10.2814 11.868 10.3538 11.8069 10.4149Z" fill="#FF5F00"/>
</svg>
